<?xml version="1.0" encoding="UTF-8"?><svg id="Calque_1" xmlns="http://www.w3.org/2000/svg" viewBox="0 0 432.85 184.57"><defs><style>.cls-1{fill:#FFFFFF;stroke-width:0px;}</style></defs><path class="cls-1" d="m305.96,58.96c1.1.56,1.95,1.36,2.55,2.41.6,1.05.9,2.27.9,3.66s-.3,2.61-.9,3.63-1.45,1.81-2.55,2.36c-1.1.55-2.38.82-3.84.82h-4.48v-13.72h4.48c1.46,0,2.74.28,3.84.84Zm-.15,9.74c.86-.87,1.28-2.09,1.28-3.67s-.43-2.84-1.28-3.73c-.86-.89-2.09-1.34-3.69-1.34h-2.23v10.05h2.23c1.61,0,2.84-.43,3.69-1.3Z"/><path class="cls-1" d="m322.02,67.24h-8.31c.07.87.39,1.57.97,2.09.58.53,1.29.79,2.13.79,1.21,0,2.07-.51,2.57-1.52h2.43c-.33,1-.92,1.82-1.79,2.46-.86.64-1.93.96-3.21.96-1.04,0-1.97-.23-2.79-.7-.82-.47-1.47-1.12-1.93-1.97-.47-.85-.7-1.83-.7-2.95s.23-2.1.68-2.95c.45-.85,1.09-1.5,1.91-1.96.82-.46,1.77-.69,2.83-.69s1.94.22,2.74.67c.8.45,1.43,1.08,1.88,1.88.45.81.67,1.74.67,2.79,0,.41-.03.78-.08,1.11Zm-2.27-1.82c-.01-.83-.31-1.49-.89-1.99-.58-.5-1.3-.75-2.15-.75-.78,0-1.44.25-1.99.74-.55.49-.88,1.16-.99,2h6.02Zm-.97-7.38l-4.36,2.15v-1.66l4.36-2.41v1.91Z"/><path class="cls-1" d="m324.73,63.44c.45-.85,1.08-1.5,1.88-1.96.8-.46,1.72-.69,2.76-.69,1.32,0,2.4.31,3.27.94.86.63,1.44,1.52,1.75,2.67h-2.43c-.2-.54-.51-.96-.95-1.26-.43-.3-.98-.45-1.64-.45-.92,0-1.65.33-2.2.98-.55.65-.82,1.56-.82,2.73s.27,2.09.82,2.74c.55.66,1.28.99,2.2.99,1.3,0,2.16-.57,2.59-1.72h2.43c-.32,1.11-.91,1.98-1.78,2.63s-1.95.98-3.24.98c-1.04,0-1.96-.23-2.76-.7-.8-.47-1.43-1.12-1.88-1.97s-.68-1.83-.68-2.95.23-2.1.68-2.95Z"/><path class="cls-1" d="m340.7,61.25c.55-.31,1.19-.46,1.94-.46v2.33h-.57c-.88,0-1.55.22-2,.67-.45.45-.68,1.22-.68,2.33v5.72h-2.25v-10.88h2.25v1.58c.33-.55.77-.98,1.31-1.29Z"/><path class="cls-1" d="m355,60.97l-6.67,15.99h-2.33l2.21-5.29-4.28-10.7h2.51l3.06,8.29,3.18-8.29h2.33Z"/><path class="cls-1" d="m361,61.3c.66-.34,1.4-.51,2.23-.51.95,0,1.81.23,2.6.7.78.47,1.4,1.12,1.85,1.96.45.84.67,1.81.67,2.9s-.22,2.07-.67,2.93c-.45.86-1.06,1.53-1.85,2.01-.78.48-1.65.72-2.6.72-.83,0-1.57-.17-2.21-.5-.64-.34-1.17-.75-1.58-1.25v6.75h-2.25v-16.05h2.25v1.6c.38-.5.9-.92,1.56-1.26Zm4.59,3.11c-.31-.55-.72-.96-1.22-1.24-.51-.28-1.05-.42-1.63-.42s-1.1.14-1.61.43-.91.71-1.22,1.26c-.31.55-.46,1.2-.46,1.95s.15,1.4.46,1.96c.31.56.72.98,1.22,1.27.51.29,1.04.43,1.61.43s1.12-.15,1.63-.44c.51-.3.91-.73,1.22-1.29.31-.57.46-1.22.46-1.97s-.15-1.4-.46-1.94Z"/><path class="cls-1" d="m373.69,62.8v6.02c0,.41.1.7.29.88s.52.27.98.27h1.38v1.88h-1.78c-1.01,0-1.79-.24-2.33-.71-.54-.47-.81-1.24-.81-2.31v-6.02h-1.28v-1.84h1.28v-2.7h2.27v2.7h2.64v1.84h-2.64Z"/><path class="cls-1" d="m388.79,67.24h-8.31c.07.87.39,1.57.97,2.09.58.53,1.29.79,2.13.79,1.21,0,2.07-.51,2.57-1.52h2.43c-.33,1-.92,1.82-1.79,2.46-.86.64-1.93.96-3.21.96-1.04,0-1.97-.23-2.79-.7-.82-.47-1.47-1.12-1.93-1.97-.47-.85-.7-1.83-.7-2.95s.23-2.1.68-2.95c.45-.85,1.09-1.5,1.91-1.96.82-.46,1.77-.69,2.83-.69s1.94.22,2.74.67c.8.45,1.43,1.08,1.88,1.88.45.81.67,1.74.67,2.79,0,.41-.03.78-.08,1.11Zm-2.27-1.82c-.01-.83-.31-1.49-.89-1.99-.58-.5-1.3-.75-2.15-.75-.78,0-1.44.25-1.99.74-.55.49-.88,1.16-.99,2h6.02Z"/><path class="cls-1" d="m395.14,61.25c.55-.31,1.19-.46,1.94-.46v2.33h-.57c-.88,0-1.55.22-2,.67-.45.45-.68,1.22-.68,2.33v5.72h-2.25v-10.88h2.25v1.58c.33-.55.77-.98,1.31-1.29Z"/><path class="cls-1" d="m304.77,105.83l-3.16-5.49h-1.72v5.49h-2.25v-13.72h4.74c1.05,0,1.94.18,2.67.55s1.28.86,1.64,1.48.54,1.31.54,2.07c0,.9-.26,1.71-.78,2.44-.52.73-1.32,1.23-2.4,1.49l3.39,5.68h-2.68Zm-4.88-7.28h2.49c.84,0,1.48-.21,1.91-.63.43-.42.64-.99.64-1.7s-.21-1.27-.63-1.67c-.42-.4-1.06-.6-1.91-.6h-2.49v4.6Z"/><path class="cls-1" d="m320.5,101.24h-8.31c.07.87.39,1.57.97,2.09.58.53,1.29.79,2.13.79,1.21,0,2.07-.51,2.57-1.52h2.43c-.33,1-.92,1.82-1.79,2.46-.86.64-1.93.96-3.21.96-1.04,0-1.97-.23-2.79-.7-.82-.47-1.47-1.12-1.93-1.97-.47-.85-.7-1.83-.7-2.95s.23-2.1.68-2.95c.45-.85,1.09-1.5,1.91-1.96.82-.46,1.77-.69,2.83-.69s1.94.22,2.74.67c.8.45,1.43,1.08,1.88,1.88.45.81.67,1.74.67,2.79,0,.41-.03.78-.08,1.11Zm-2.27-1.82c-.01-.83-.31-1.49-.89-1.99-.58-.5-1.3-.75-2.15-.75-.78,0-1.44.25-1.99.74-.55.49-.88,1.16-.99,2h6.02Zm-.97-7.38l-4.36,2.15v-1.66l4.36-2.41v1.91Z"/><path class="cls-1" d="m327.49,103.82l3.08-8.86h2.39l-4.14,10.88h-2.68l-4.12-10.88h2.41l3.08,8.86Z"/><path class="cls-1" d="m345.03,101.24h-8.31c.07.87.39,1.57.97,2.09.58.53,1.29.79,2.13.79,1.21,0,2.07-.51,2.57-1.52h2.43c-.33,1-.92,1.82-1.79,2.46-.86.64-1.93.96-3.21.96-1.04,0-1.97-.23-2.79-.7-.82-.47-1.47-1.12-1.93-1.97-.47-.85-.7-1.83-.7-2.95s.23-2.1.68-2.95c.45-.85,1.09-1.5,1.91-1.96.82-.46,1.77-.69,2.83-.69s1.94.22,2.74.67c.8.45,1.43,1.08,1.88,1.88.45.81.67,1.74.67,2.79,0,.41-.03.78-.08,1.11Zm-2.27-1.82c-.01-.83-.31-1.49-.89-1.99-.58-.5-1.3-.75-2.15-.75-.78,0-1.44.25-1.99.74-.55.49-.88,1.16-.99,2h6.02Zm-.97-7.38l-4.36,2.15v-1.66l4.36-2.41v1.91Z"/><path class="cls-1" d="m350.07,91.23v14.61h-2.25v-14.61h2.25Z"/><path class="cls-1" d="m363.41,101.24h-8.31c.07.87.39,1.57.97,2.09.58.53,1.29.79,2.13.79,1.21,0,2.07-.51,2.57-1.52h2.43c-.33,1-.92,1.82-1.79,2.46-.86.64-1.93.96-3.21.96-1.04,0-1.97-.23-2.79-.7-.82-.47-1.47-1.12-1.93-1.97-.47-.85-.7-1.83-.7-2.95s.23-2.1.68-2.95c.45-.85,1.09-1.5,1.91-1.96.82-.46,1.77-.69,2.83-.69s1.94.22,2.74.67c.8.45,1.43,1.08,1.88,1.88.45.81.67,1.74.67,2.79,0,.41-.03.78-.08,1.11Zm-2.27-1.82c-.01-.83-.31-1.49-.89-1.99-.58-.5-1.3-.75-2.15-.75-.78,0-1.44.25-1.99.74-.55.49-.88,1.16-.99,2h6.02Z"/><path class="cls-1" d="m369.75,95.24c.55-.31,1.19-.46,1.94-.46v2.33h-.57c-.88,0-1.55.22-2,.67-.45.45-.68,1.22-.68,2.33v5.72h-2.25v-10.88h2.25v1.58c.33-.55.77-.98,1.31-1.29Z"/><path class="cls-1" d="m306.86,133.95c.51.64.77,1.37.77,2.19,0,.7-.18,1.33-.54,1.89-.36.56-.89,1-1.57,1.32-.68.32-1.48.48-2.39.48h-5.49v-13.72h5.23c.93,0,1.74.16,2.41.47.67.32,1.18.74,1.52,1.27.34.53.51,1.13.51,1.79,0,.79-.21,1.45-.63,1.97-.42.53-.99.91-1.7,1.16.74.13,1.36.52,1.88,1.16Zm-6.97-2.07h2.78c.74,0,1.31-.17,1.73-.5.41-.34.62-.82.62-1.45s-.21-1.1-.62-1.45-.99-.52-1.73-.52h-2.78v3.93Zm4.84,5.57c.43-.37.65-.88.65-1.54s-.23-1.2-.69-1.6-1.07-.59-1.84-.59h-2.96v4.28h3.04c.76,0,1.36-.18,1.8-.55Z"/><path class="cls-1" d="m310.5,131.44c.45-.84,1.07-1.5,1.86-1.96s1.65-.7,2.6-.7c.86,0,1.6.17,2.24.5.64.34,1.15.75,1.53,1.25v-1.58h2.27v10.88h-2.27v-1.62c-.38.51-.9.94-1.56,1.28-.66.34-1.41.51-2.25.51-.93,0-1.79-.24-2.57-.72-.78-.48-1.39-1.15-1.85-2.01-.45-.86-.68-1.84-.68-2.93s.23-2.06.68-2.9Zm7.76.99c-.31-.55-.71-.97-1.21-1.26s-1.04-.43-1.62-.43-1.12.14-1.62.42c-.5.28-.9.7-1.21,1.24-.31.55-.46,1.19-.46,1.94s.15,1.41.46,1.97c.31.57.72,1,1.22,1.29s1.04.44,1.61.44,1.12-.14,1.62-.43c.5-.29.9-.71,1.21-1.27.31-.56.46-1.21.46-1.96s-.16-1.4-.46-1.95Z"/><path class="cls-1" d="m326.1,139.54c-.68-.31-1.21-.73-1.61-1.26-.4-.53-.61-1.13-.63-1.79h2.33c.04.46.26.85.66,1.15.4.31.9.46,1.51.46s1.12-.12,1.47-.37.52-.56.52-.94c0-.41-.19-.71-.58-.91-.39-.2-1-.41-1.85-.65-.82-.22-1.48-.44-1.99-.65-.51-.21-.96-.53-1.33-.97-.37-.43-.56-1.01-.56-1.72,0-.58.17-1.11.51-1.59s.83-.86,1.47-1.14,1.37-.41,2.2-.41c1.24,0,2.23.31,2.99.94.76.63,1.16,1.48,1.21,2.56h-2.25c-.04-.49-.24-.87-.59-1.16-.35-.29-.84-.43-1.44-.43s-1.05.11-1.36.34-.47.52-.47.89c0,.29.1.53.32.73.21.2.47.35.77.46.3.11.75.25,1.34.42.79.21,1.44.42,1.94.64.51.22.94.54,1.31.96.37.42.56.98.57,1.68,0,.62-.17,1.17-.51,1.66s-.83.87-1.45,1.14c-.63.28-1.36.41-2.2.41s-1.62-.15-2.3-.46Z"/><path class="cls-1" d="m335.41,131.43c.45-.85,1.08-1.5,1.88-1.96.8-.46,1.72-.69,2.76-.69,1.32,0,2.4.31,3.27.94.86.63,1.44,1.52,1.75,2.67h-2.43c-.2-.54-.51-.96-.95-1.26-.43-.3-.98-.45-1.64-.45-.92,0-1.65.33-2.2.98-.55.65-.82,1.56-.82,2.73s.27,2.09.82,2.74c.55.66,1.28.99,2.2.99,1.3,0,2.16-.57,2.59-1.72h2.43c-.32,1.11-.91,1.98-1.78,2.63s-1.95.98-3.24.98c-1.04,0-1.96-.23-2.76-.7-.8-.47-1.43-1.12-1.88-1.97s-.68-1.83-.68-2.95.23-2.1.68-2.95Z"/><path class="cls-1" d="m357.67,128.95v10.88h-2.25v-1.28c-.35.45-.82.8-1.39,1.06-.57.26-1.18.38-1.83.38-.86,0-1.62-.18-2.3-.53-.68-.36-1.21-.88-1.6-1.58-.39-.7-.58-1.54-.58-2.53v-6.4h2.23v6.06c0,.97.24,1.72.73,2.24.49.52,1.15.78,1.99.78s1.51-.26,2-.78c.49-.52.74-1.27.74-2.24v-6.06h2.25Z"/><path class="cls-1" d="m363.37,125.22v14.61h-2.25v-14.61h2.25Z"/><path class="cls-1" d="m376.71,135.23h-8.31c.07.87.39,1.57.97,2.09.58.53,1.29.79,2.13.79,1.21,0,2.07-.51,2.57-1.52h2.43c-.33,1-.92,1.82-1.79,2.46-.86.64-1.93.96-3.21.96-1.04,0-1.97-.23-2.79-.7-.82-.47-1.47-1.12-1.93-1.97-.47-.85-.7-1.83-.7-2.95s.23-2.1.68-2.95c.45-.85,1.09-1.5,1.91-1.96.82-.46,1.77-.69,2.83-.69s1.94.22,2.74.67c.8.45,1.43,1.08,1.88,1.88.45.81.67,1.74.67,2.79,0,.41-.03.78-.08,1.11Zm-2.27-1.82c-.01-.83-.31-1.49-.89-1.99-.58-.5-1.3-.75-2.15-.75-.78,0-1.44.25-1.99.74-.55.49-.88,1.16-.99,2h6.02Z"/><path class="cls-1" d="m383.06,129.24c.55-.31,1.19-.46,1.94-.46v2.33h-.57c-.88,0-1.55.22-2,.67-.45.45-.68,1.22-.68,2.33v5.72h-2.25v-10.88h2.25v1.58c.33-.55.77-.98,1.31-1.29Z"/><rect class="cls-1" x="279.44" y="49.76" width="1.61" height="98.37"/><polygon class="cls-1" points="54.02 76.83 45.22 50.1 35.78 50.1 48.61 84.94 59.3 84.94 72.2 50.1 62.83 50.1 54.02 76.83"/><path class="cls-1" d="m101.28,51.67c-2.62-1.42-5.59-2.14-8.9-2.14s-6.48.73-9.12,2.2c-2.64,1.47-4.7,3.56-6.16,6.29-1.47,2.73-2.2,5.89-2.2,9.5s.74,6.71,2.23,9.43c1.49,2.73,3.56,4.83,6.23,6.32,2.66,1.49,5.67,2.23,9.02,2.23,4.15,0,7.65-1.08,10.5-3.24,2.85-2.16,4.78-4.92,5.79-8.27h-9.5c-1.38,2.81-3.71,4.21-6.98,4.21-2.26,0-4.17-.71-5.72-2.14-1.55-1.42-2.43-3.4-2.64-5.91h25.47c.17-1.01.25-2.14.25-3.4,0-3.4-.72-6.4-2.17-9.02-1.45-2.62-3.48-4.64-6.1-6.07Zm-17.39,12.58c.33-2.35,1.25-4.18,2.74-5.5,1.49-1.32,3.32-1.98,5.5-1.98,2.31,0,4.25.68,5.85,2.04,1.59,1.36,2.41,3.18,2.45,5.44h-16.54Z"/><path class="cls-1" d="m124.77,55.51v-5.41h-8.8v34.84h8.8v-17.36c0-3.23.7-5.49,2.11-6.79,1.4-1.3,3.49-1.95,6.26-1.95h2.33v-9.24c-2.35,0-4.43.52-6.26,1.57-1.82,1.05-3.3,2.49-4.43,4.34Z"/><path class="cls-1" d="m151.63,41.48h-8.87v8.62h-4.15v7.23h4.15v16.79c0,7.21,3.71,10.82,11.13,10.82h5.53v-7.42h-4.09c-1.34,0-2.3-.26-2.86-.79-.57-.52-.85-1.37-.85-2.55v-16.85h7.8v-7.23h-7.8v-8.62Z"/><rect class="cls-1" x="165.78" y="50.1" width="8.8" height="34.84"/><path class="cls-1" d="m170.24,35.64c-1.55,0-2.84.49-3.87,1.48-1.03.99-1.54,2.21-1.54,3.68s.51,2.69,1.54,3.68c1.03.99,2.32,1.48,3.87,1.48s2.84-.49,3.87-1.48c1.03-.98,1.54-2.21,1.54-3.68s-.51-2.69-1.54-3.68c-1.03-.98-2.32-1.48-3.87-1.48Z"/><path class="cls-1" d="m188.86,83.24c2.43,1.51,5.11,2.26,8.05,2.26,2.56,0,4.83-.55,6.82-1.64,1.99-1.09,3.55-2.45,4.69-4.09v5.41c0,3.1-.8,5.42-2.39,6.95-1.59,1.53-3.67,2.3-6.23,2.3-2.18,0-4.04-.47-5.57-1.42-1.53-.94-2.53-2.21-2.99-3.8h-8.74c.42,3.98,2.21,7.13,5.38,9.43,3.16,2.31,7.22,3.46,12.17,3.46,3.69,0,6.83-.74,9.43-2.23,2.6-1.49,4.55-3.5,5.85-6.04,1.3-2.54,1.95-5.42,1.95-8.65v-35.09h-8.87v4.97c-1.13-1.64-2.68-2.97-4.65-3.99-1.97-1.03-4.26-1.54-6.86-1.54-2.98,0-5.67.73-8.08,2.2-2.41,1.47-4.32,3.56-5.72,6.29-1.41,2.73-2.11,5.85-2.11,9.37s.7,6.72,2.11,9.47c1.4,2.75,3.32,4.87,5.75,6.38Zm2.42-21.29c.86-1.53,1.98-2.69,3.36-3.49,1.38-.8,2.89-1.19,4.53-1.19s3.17.41,4.59,1.23c1.42.82,2.56,1.99,3.4,3.52.84,1.53,1.26,3.36,1.26,5.5s-.42,3.97-1.26,5.5c-.84,1.53-1.97,2.7-3.4,3.52-1.43.82-2.96,1.23-4.59,1.23s-3.09-.42-4.5-1.26c-1.41-.84-2.54-2.04-3.4-3.62-.86-1.57-1.29-3.41-1.29-5.5s.43-3.91,1.29-5.44Z"/><path class="cls-1" d="m232.32,83.28c2.68,1.49,5.7,2.23,9.06,2.23s6.47-.74,9.21-2.23c2.75-1.49,4.93-3.59,6.54-6.32,1.61-2.72,2.42-5.87,2.42-9.43s-.79-6.71-2.36-9.43c-1.57-2.72-3.72-4.83-6.45-6.32-2.73-1.49-5.77-2.23-9.12-2.23s-6.39.74-9.12,2.23c-2.73,1.49-4.87,3.6-6.45,6.32-1.57,2.73-2.36,5.87-2.36,9.43s.76,6.71,2.3,9.43c1.53,2.73,3.64,4.83,6.32,6.32Zm2.86-23.4c1.7-1.78,3.8-2.67,6.32-2.67s4.64.89,6.38,2.67c1.74,1.78,2.61,4.33,2.61,7.64,0,2.22-.42,4.11-1.26,5.66-.84,1.55-1.96,2.72-3.36,3.49-1.41.78-2.9,1.16-4.5,1.16-2.52,0-4.6-.89-6.26-2.67-1.66-1.78-2.48-4.33-2.48-7.64s.85-5.86,2.55-7.64Z"/><path class="cls-1" d="m164.82,147.5h10.5v-48.23h-10.5v48.23Zm1.69-46.54h7.11v44.85h-7.11v-44.85Z"/><path class="cls-1" d="m204.08,119.47c-1.55-.89-3.24-1.34-5.01-1.34s-3.44.44-4.95,1.31c-1.51.87-2.75,2.15-3.68,3.81-.93,1.65-1.4,3.62-1.4,5.85s.47,4.22,1.39,5.91c.93,1.7,2.17,3.02,3.7,3.94,1.53.91,3.19,1.38,4.93,1.38s3.46-.45,5.01-1.34c1.56-.89,2.81-2.19,3.72-3.85.9-1.65,1.36-3.64,1.36-5.91s-.46-4.26-1.36-5.91c-.91-1.66-2.16-2.96-3.72-3.85Zm3.39,9.76c0,1.98-.39,3.7-1.15,5.1-.76,1.39-1.79,2.46-3.08,3.19-1.29.74-2.69,1.11-4.17,1.11s-2.8-.38-4.06-1.14c-1.27-.76-2.31-1.86-3.09-3.3-.79-1.44-1.19-3.15-1.19-5.1s.4-3.63,1.18-5.03c.78-1.39,1.8-2.45,3.05-3.17,1.25-.72,2.63-1.08,4.11-1.08s2.88.37,4.17,1.11c1.28.74,2.32,1.81,3.08,3.19.77,1.4,1.15,3.11,1.15,5.1Z"/><path class="cls-1" d="m207.46,114.55c-.99-.94-2.14-1.77-3.44-2.47-2.07-1.11-4.5-1.67-7.22-1.67-3.12,0-5.99.78-8.52,2.32-2.54,1.54-4.57,3.77-6.03,6.62-1.46,2.83-2.2,6.12-2.2,9.76s.74,7,2.2,9.85c1.47,2.87,3.5,5.13,6.03,6.72,2.54,1.59,5.39,2.39,8.47,2.39,2.73,0,5.18-.57,7.29-1.7,1.31-.7,2.47-1.54,3.44-2.5v3.63h10.56v-36.53h-10.56v3.58Zm1.69,4.81v-6.7h7.18v33.15h-7.18v-6.96l-1.54,2.23c-1.05,1.52-2.53,2.79-4.39,3.79-1.86,1-4.04,1.5-6.49,1.5-2.76,0-5.31-.72-7.57-2.14-2.27-1.42-4.09-3.46-5.42-6.05-1.34-2.61-2.01-5.67-2.01-9.08s.68-6.39,2.01-8.98c1.33-2.57,3.15-4.58,5.41-5.95,2.27-1.38,4.84-2.08,7.64-2.08,2.45,0,4.61.5,6.42,1.47,1.83.98,3.31,2.24,4.41,3.72l1.53,2.07Z"/><path class="cls-1" d="m260.66,119.31c-1.47-2.83-3.5-5.05-6.03-6.59-2.53-1.54-5.4-2.32-8.52-2.32-2.68,0-5.11.56-7.22,1.67-1.32.69-2.47,1.53-3.45,2.5v-15.3h-10.5v48.23h10.5v-3.55c.99.96,2.14,1.79,3.45,2.47,2.06,1.09,4.49,1.64,7.22,1.64,3.12,0,5.99-.81,8.53-2.39,2.53-1.58,4.56-3.84,6.03-6.72,1.46-2.85,2.2-6.17,2.2-9.85s-.74-6.98-2.2-9.79Zm-1.5,18.87c-1.33,2.6-3.15,4.63-5.42,6.05-2.26,1.42-4.83,2.14-7.63,2.14-2.45,0-4.61-.49-6.43-1.44-1.82-.96-3.3-2.22-4.39-3.74l-1.53-2.14v6.75h-7.11v-44.85h7.11v18.71l1.55-2.29c1.05-1.55,2.52-2.84,4.38-3.81,1.86-.98,4.02-1.48,6.43-1.48,2.8,0,5.38.7,7.64,2.08,2.27,1.38,4.09,3.37,5.41,5.93,1.33,2.57,2.01,5.6,2.01,9.01s-.68,6.47-2.01,9.08Z"/><path class="cls-1" d="m248.76,119.44c-1.53-.87-3.2-1.31-4.98-1.31s-3.39.45-4.92,1.34c-1.53.89-2.78,2.2-3.71,3.87-.93,1.67-1.4,3.65-1.4,5.88s.47,4.21,1.39,5.88c.93,1.68,2.18,2.98,3.71,3.87,1.53.89,3.18,1.34,4.92,1.34s3.46-.46,4.99-1.38c1.53-.91,2.77-2.22,3.7-3.9.93-1.67,1.4-3.67,1.4-5.94s-.47-4.2-1.4-5.85c-.93-1.66-2.18-2.94-3.72-3.81Zm2.24,14.79c-.78,1.41-1.82,2.51-3.09,3.27-1.26.76-2.65,1.14-4.13,1.14s-2.81-.37-4.07-1.11c-1.26-.74-2.3-1.82-3.08-3.23-.79-1.42-1.18-3.12-1.18-5.06s.4-3.64,1.18-5.06c.78-1.41,1.82-2.5,3.08-3.23,1.27-.74,2.64-1.11,4.07-1.11s2.87.37,4.14,1.08c1.26.72,2.3,1.78,3.08,3.17.78,1.4,1.18,3.09,1.18,5.03s-.4,3.71-1.18,5.12Z"/></svg>