<?xml version="1.0" encoding="UTF-8"?><svg id="Calque_1" xmlns="http://www.w3.org/2000/svg" viewBox="0 0 298.65 184.57"><defs><style>.cls-1{fill:#FFFFFF;stroke-width:0px;}</style></defs><polygon class="cls-1" points="53.96 76.83 45.16 50.1 35.73 50.1 48.56 84.94 59.25 84.94 72.14 50.1 62.77 50.1 53.96 76.83"/><path class="cls-1" d="m101.23,51.67c-2.62-1.42-5.59-2.14-8.9-2.14s-6.48.73-9.12,2.2c-2.64,1.47-4.7,3.56-6.16,6.29-1.47,2.73-2.2,5.89-2.2,9.5s.74,6.71,2.23,9.43c1.49,2.73,3.56,4.83,6.23,6.32,2.66,1.49,5.67,2.23,9.02,2.23,4.15,0,7.65-1.08,10.5-3.24,2.85-2.16,4.78-4.92,5.79-8.27h-9.5c-1.38,2.81-3.71,4.21-6.98,4.21-2.26,0-4.17-.71-5.72-2.14-1.55-1.42-2.43-3.4-2.64-5.91h25.47c.17-1.01.25-2.14.25-3.4,0-3.4-.72-6.4-2.17-9.02-1.45-2.62-3.48-4.64-6.1-6.07Zm-17.39,12.58c.33-2.35,1.25-4.18,2.74-5.5,1.49-1.32,3.32-1.98,5.5-1.98,2.31,0,4.25.68,5.85,2.04,1.59,1.36,2.41,3.18,2.45,5.44h-16.54Z"/><path class="cls-1" d="m124.72,55.51v-5.41h-8.8v34.84h8.8v-17.36c0-3.23.7-5.49,2.11-6.79,1.4-1.3,3.49-1.95,6.26-1.95h2.33v-9.24c-2.35,0-4.43.52-6.26,1.57-1.82,1.05-3.3,2.49-4.43,4.34Z"/><path class="cls-1" d="m151.57,41.48h-8.87v8.62h-4.15v7.23h4.15v16.79c0,7.21,3.71,10.82,11.13,10.82h5.53v-7.42h-4.09c-1.34,0-2.3-.26-2.86-.79-.57-.52-.85-1.37-.85-2.55v-16.85h7.8v-7.23h-7.8v-8.62Z"/><rect class="cls-1" x="165.72" y="50.1" width="8.8" height="34.84"/><path class="cls-1" d="m170.18,35.64c-1.55,0-2.84.49-3.87,1.48-1.03.99-1.54,2.21-1.54,3.68s.51,2.69,1.54,3.68c1.03.99,2.32,1.48,3.87,1.48s2.84-.49,3.87-1.48c1.03-.98,1.54-2.21,1.54-3.68s-.51-2.69-1.54-3.68c-1.03-.98-2.32-1.48-3.87-1.48Z"/><path class="cls-1" d="m188.8,83.24c2.43,1.51,5.11,2.26,8.05,2.26,2.56,0,4.83-.55,6.82-1.64,1.99-1.09,3.55-2.45,4.69-4.09v5.41c0,3.1-.8,5.42-2.39,6.95-1.59,1.53-3.67,2.3-6.23,2.3-2.18,0-4.04-.47-5.57-1.42-1.53-.94-2.53-2.21-2.99-3.8h-8.74c.42,3.98,2.21,7.13,5.38,9.43,3.16,2.31,7.22,3.46,12.17,3.46,3.69,0,6.83-.74,9.43-2.23,2.6-1.49,4.55-3.5,5.85-6.04,1.3-2.54,1.95-5.42,1.95-8.65v-35.09h-8.87v4.97c-1.13-1.64-2.68-2.97-4.65-3.99-1.97-1.03-4.26-1.54-6.86-1.54-2.98,0-5.67.73-8.08,2.2-2.41,1.47-4.32,3.56-5.72,6.29-1.41,2.73-2.11,5.85-2.11,9.37s.7,6.72,2.11,9.47c1.4,2.75,3.32,4.87,5.75,6.38Zm2.42-21.29c.86-1.53,1.98-2.69,3.36-3.49,1.38-.8,2.89-1.19,4.53-1.19s3.17.41,4.59,1.23c1.42.82,2.56,1.99,3.4,3.52.84,1.53,1.26,3.36,1.26,5.5s-.42,3.97-1.26,5.5c-.84,1.53-1.97,2.7-3.4,3.52-1.43.82-2.96,1.23-4.59,1.23s-3.09-.42-4.5-1.26c-1.41-.84-2.54-2.04-3.4-3.62-.86-1.57-1.29-3.41-1.29-5.5s.43-3.91,1.29-5.44Z"/><path class="cls-1" d="m232.26,83.28c2.68,1.49,5.7,2.23,9.06,2.23s6.47-.74,9.21-2.23c2.75-1.49,4.93-3.59,6.54-6.32,1.61-2.72,2.42-5.87,2.42-9.43s-.79-6.71-2.36-9.43c-1.57-2.72-3.72-4.83-6.45-6.32-2.73-1.49-5.77-2.23-9.12-2.23s-6.39.74-9.12,2.23c-2.73,1.49-4.87,3.6-6.45,6.32-1.57,2.73-2.36,5.87-2.36,9.43s.76,6.71,2.3,9.43c1.53,2.73,3.64,4.83,6.32,6.32Zm2.86-23.4c1.7-1.78,3.8-2.67,6.32-2.67s4.64.89,6.38,2.67c1.74,1.78,2.61,4.33,2.61,7.64,0,2.22-.42,4.11-1.26,5.66-.84,1.55-1.96,2.72-3.36,3.49-1.41.78-2.9,1.16-4.5,1.16-2.52,0-4.6-.89-6.26-2.67-1.66-1.78-2.48-4.33-2.48-7.64s.85-5.86,2.55-7.64Z"/><path class="cls-1" d="m164.76,147.5h10.5v-48.23h-10.5v48.23Zm1.69-46.54h7.11v44.85h-7.11v-44.85Z"/><path class="cls-1" d="m204.02,119.47c-1.55-.89-3.24-1.34-5.01-1.34s-3.44.44-4.95,1.31c-1.51.87-2.75,2.15-3.68,3.81-.93,1.65-1.4,3.62-1.4,5.85s.47,4.22,1.39,5.91c.93,1.7,2.17,3.02,3.7,3.94,1.53.91,3.19,1.38,4.93,1.38s3.46-.45,5.01-1.34c1.56-.89,2.81-2.19,3.72-3.85.9-1.65,1.36-3.64,1.36-5.91s-.46-4.26-1.36-5.91c-.91-1.66-2.16-2.96-3.72-3.85Zm3.39,9.76c0,1.98-.39,3.7-1.15,5.1-.76,1.39-1.79,2.46-3.08,3.19-1.29.74-2.69,1.11-4.17,1.11s-2.8-.38-4.06-1.14c-1.27-.76-2.31-1.86-3.09-3.3-.79-1.44-1.19-3.15-1.19-5.1s.4-3.63,1.18-5.03c.78-1.39,1.8-2.45,3.05-3.17,1.25-.72,2.63-1.08,4.11-1.08s2.88.37,4.17,1.11c1.28.74,2.32,1.81,3.08,3.19.77,1.4,1.15,3.11,1.15,5.1Z"/><path class="cls-1" d="m207.4,114.55c-.99-.94-2.14-1.77-3.44-2.47-2.07-1.11-4.5-1.67-7.22-1.67-3.12,0-5.99.78-8.52,2.32-2.54,1.54-4.57,3.77-6.03,6.62-1.46,2.83-2.2,6.12-2.2,9.76s.74,7,2.2,9.85c1.47,2.87,3.5,5.13,6.03,6.72,2.54,1.59,5.39,2.39,8.47,2.39,2.73,0,5.18-.57,7.29-1.7,1.31-.7,2.47-1.54,3.44-2.5v3.63h10.56v-36.53h-10.56v3.58Zm1.69,4.81v-6.7h7.18v33.15h-7.18v-6.96l-1.54,2.23c-1.05,1.52-2.53,2.79-4.39,3.79-1.86,1-4.04,1.5-6.49,1.5-2.76,0-5.31-.72-7.57-2.14-2.27-1.42-4.09-3.46-5.42-6.05-1.34-2.61-2.01-5.67-2.01-9.08s.68-6.39,2.01-8.98c1.33-2.57,3.15-4.58,5.41-5.95,2.27-1.38,4.84-2.08,7.64-2.08,2.45,0,4.61.5,6.42,1.47,1.83.98,3.31,2.24,4.41,3.72l1.53,2.07Z"/><path class="cls-1" d="m260.6,119.31c-1.47-2.83-3.5-5.05-6.03-6.59-2.53-1.54-5.4-2.32-8.52-2.32-2.68,0-5.11.56-7.22,1.67-1.32.69-2.47,1.53-3.45,2.5v-15.3h-10.5v48.23h10.5v-3.55c.99.96,2.14,1.79,3.45,2.47,2.06,1.09,4.49,1.64,7.22,1.64,3.12,0,5.99-.81,8.53-2.39,2.53-1.58,4.56-3.84,6.03-6.72,1.46-2.85,2.2-6.17,2.2-9.85s-.74-6.98-2.2-9.79Zm-1.5,18.87c-1.33,2.6-3.15,4.63-5.42,6.05-2.26,1.42-4.83,2.14-7.63,2.14-2.45,0-4.61-.49-6.43-1.44-1.82-.96-3.3-2.22-4.39-3.74l-1.53-2.14v6.75h-7.11v-44.85h7.11v18.71l1.55-2.29c1.05-1.55,2.52-2.84,4.38-3.81,1.86-.98,4.02-1.48,6.43-1.48,2.8,0,5.38.7,7.64,2.08,2.27,1.38,4.09,3.37,5.41,5.93,1.33,2.57,2.01,5.6,2.01,9.01s-.68,6.47-2.01,9.08Z"/><path class="cls-1" d="m248.7,119.44c-1.53-.87-3.2-1.31-4.98-1.31s-3.39.45-4.92,1.34c-1.53.89-2.78,2.2-3.71,3.87-.93,1.67-1.4,3.65-1.4,5.88s.47,4.21,1.39,5.88c.93,1.68,2.18,2.98,3.71,3.87,1.53.89,3.18,1.34,4.92,1.34s3.46-.46,4.99-1.38c1.53-.91,2.77-2.22,3.7-3.9.93-1.67,1.4-3.67,1.4-5.94s-.47-4.2-1.4-5.85c-.93-1.66-2.18-2.94-3.72-3.81Zm2.24,14.79c-.78,1.41-1.82,2.51-3.09,3.27-1.26.76-2.65,1.14-4.13,1.14s-2.81-.37-4.07-1.11c-1.26-.74-2.3-1.82-3.08-3.23-.79-1.42-1.18-3.12-1.18-5.06s.4-3.64,1.18-5.06c.78-1.41,1.82-2.5,3.08-3.23,1.27-.74,2.64-1.11,4.07-1.11s2.87.37,4.14,1.08c1.26.72,2.3,1.78,3.08,3.17.78,1.4,1.18,3.09,1.18,5.03s-.4,3.71-1.18,5.12Z"/></svg>